<svg xmlns="http://www.w3.org/2000/svg" width="36" height="36" viewBox="0 0 24 24" fill="white"><path d="M20.52 3.48A11.77 11.77 0 0 0 12 0C5.373 0 0 5.373 0 12c0 2.116.553 4.145 1.6 5.938L0 24l6.221-1.626A11.95 11.95 0 0 0 12 24c6.627 0 12-5.373 12-12 0-3.197-1.248-6.21-3.48-8.52zM12 22a9.93 9.93 0 0 1-5.063-1.373l-.363-.215-3.698.968.986-3.605-.237-.373A9.924 9.924 0 0 1 2 12c0-5.514 4.486-10 10-10 2.672 0 5.182 1.04 7.071 2.929A9.931 9.931 0 0 1 22 12c0 5.514-4.486 10-10 10zM17.373 14.627c-.293-.146-1.733-.853-2.003-.949-.27-.097-.467-.146-.663.146-.197.293-.76.949-.93 1.146-.17.197-.34.22-.633.073-.293-.146-1.236-.456-2.353-1.45-.869-.774-1.454-1.729-1.627-2.022-.17-.293-.018-.451.128-.597.132-.131.293-.34.44-.51.146-.17.195-.293.293-.489.098-.196.049-.366-.024-.512-.073-.146-.663-1.6-.908-2.193-.239-.576-.481-.498-.663-.507-.17-.009-.366-.011-.562-.011s-.512.073-.78.366c-.27.293-1.025 1.002-1.025 2.439 0 1.437 1.052 2.826 1.197 3.022.146.196 2.07 3.162 5.018 4.431.703.303 1.251.485 1.678.62.704.224 1.344.192 1.849.116.563-.084 1.733-.707 1.978-1.39.244-.683.244-1.268.171-1.39-.073-.122-.268-.195-.562-.341z"/></svg>